<svg width="128" height="128" viewBox="0 0 128 128" fill="none" xmlns="http://www.w3.org/2000/svg">
<rect width="128" height="128" transform="matrix(-1 0 0 1 128 0)" fill="#2B2523"/>
<path d="M70.4222 94.1658C70.5994 94.6386 70.9242 94.875 71.3967 94.875H83.9759C84.2712 94.875 84.4779 94.7863 84.596 94.6091C84.7141 94.3727 84.7141 94.1067 84.596 93.8112L60.5006 33.7103C60.3234 33.2375 59.9986 33.0011 59.5261 33.0011H50.6675C50.195 33.0011 49.8702 33.2375 49.693 33.7103L24.0208 93.8112L23.9322 94.1658C23.9322 94.6386 24.198 94.875 24.7295 94.875H37.2201C37.6926 94.875 38.0174 94.6386 38.1946 94.1658L41.6156 86.7254C41.7928 86.3708 42.0881 86.1936 42.5015 86.1936H66.2425C66.715 86.1936 67.0103 86.3708 67.1284 86.7254L70.4222 94.1658ZM62.0065 73.2806C62.0065 73.5761 61.7998 73.7238 61.3864 73.7238H47.8327C47.5965 73.7238 47.4193 73.6647 47.3012 73.5466C47.1831 73.3693 47.1831 73.1624 47.3012 72.926L54.3881 57.5902C54.5062 57.2948 54.6834 57.147 54.9196 57.147C55.0968 57.147 55.2444 57.2948 55.3626 57.5902L61.9179 72.926L62.0065 73.2806Z" fill="#FF5E33"/>
<path d="M79.4634 33.495C79.3432 33.1959 79.0533 33 78.7311 33H65.8348C65.3877 33 65.0822 33.4519 65.2489 33.8668L89.4827 94.182C89.6509 94.6007 90.0568 94.875 90.508 94.875H103.191C103.638 94.875 103.943 94.4231 103.777 94.0082L79.4634 33.495Z" fill="#F8B236"/>
</svg>
