<svg xmlns="http://www.w3.org/2000/svg" class="logo-icon" viewBox="0 0 96 97">
  <path  d="M50.007 56.307c-.317 0-.476-.114-.476-.343l.068-.275 5.033-11.867c.09-.229.205-.343.34-.343.182 0 .318.114.408.343l5.442 11.868c.091.183.091.342 0 .48-.09.091-.226.137-.408.137H50.007Z"/>
  <path fill-rule="evenodd" d="M5 29.857v37.85c0 1.774.465 3.516 1.348 5.05a10.02 10.02 0 0 0 3.682 3.685l33.019 19.015a9.921 9.921 0 0 0 9.904 0L85.97 76.442a10.02 10.02 0 0 0 3.682-3.685A10.121 10.121 0 0 0 91 67.707v-37.85a10.12 10.12 0 0 0-1.348-5.05 10.02 10.02 0 0 0-3.682-3.685L52.952 2.108a9.922 9.922 0 0 0-9.904 0L10.03 21.122a10.02 10.02 0 0 0-3.682 3.685A10.12 10.12 0 0 0 5 29.857Zm37.32 42.818c.364 0 .613-.183.748-.549l2.529-5.758c.09-.274.317-.411.68-.411h18.231c.318 0 .544.137.68.411l2.627 5.758c.136.366.385.549.748.549h9.591c.408 0 .613-.183.613-.549l-.069-.274-19.713-46.51c-.136-.365-.385-.548-.748-.548h-6.802c-.362 0-.612.183-.748.548l-18.501 46.51c-.092.228-.092.434 0 .617.09.137.249.206.476.206h9.658Zm-5.97-47.777a.602.602 0 0 1 .34-.105h9.902a.483.483 0 0 1 .481.437.492.492 0 0 1-.032.233L28.434 72.139a.848.848 0 0 1-.787.535h-9.739a.48.48 0 0 1-.401-.215.492.492 0 0 1-.05-.455l18.67-46.828a.609.609 0 0 1 .223-.278Z" clip-rule="evenodd"/>
</svg>
