<?xml version="1.0" standalone="no"?>
<!DOCTYPE svg PUBLIC "-//W3C//DTD SVG 20010904//EN"
 "http://www.w3.org/TR/2001/REC-SVG-20010904/DTD/svg10.dtd">
<svg version="1.0" xmlns="http://www.w3.org/2000/svg"
 width="512.000000pt" height="512.000000pt" viewBox="0 0 512.000000 512.000000"
 preserveAspectRatio="xMidYMid meet">
<metadata>
Created by potrace 1.14, written by Peter Selinger 2001-2017
</metadata>
<g transform="translate(0.000000,512.000000) scale(0.100000,-0.100000)"
fill="#000000" stroke="none">
<path d="M0 2560 l0 -2560 2560 0 2560 0 0 2560 0 2560 -2560 0 -2560 0 0
-2560z m2506 1225 c4 -8 -214 -563 -483 -1232 l-490 -1218 -271 -5 c-150 -3
-277 -3 -282 -2 -6 2 -10 10 -10 19 0 11 864 2174 967 2421 l13 32 275 0 c235
0 276 -2 281 -15z m606 3 c9 -7 66 -130 126 -273 61 -143 293 -687 516 -1210
224 -522 404 -955 401 -962 -3 -11 -61 -13 -277 -11 l-272 3 -76 163 c-41 89
-82 167 -90 172 -24 16 -972 13 -992 -3 -9 -6 -48 -84 -86 -172 l-71 -160
-275 -3 c-262 -2 -276 -1 -276 16 0 28 966 2434 982 2443 22 14 372 11 390 -3z"/>
<path d="M2912 2828 c-17 -21 -272 -620 -272 -640 0 -17 19 -18 295 -18 283 0
295 1 295 19 0 22 -275 620 -294 639 -10 11 -15 11 -24 0z"/>
</g>
</svg>
