<svg width="210" height="44" viewBox="0 0 210 44" fill="none" xmlns="http://www.w3.org/2000/svg">
<g clip-path="url(#clip0_8520_18419)">
<path d="M192.566 13.5871L197.845 24.1415L210 0L192.566 13.5871Z" fill="#FFBB00"/>
<path d="M7.58608 39.5814C8.18374 39.5943 8.78075 39.5336 9.36406 39.4006C9.76812 39.3051 10.1515 39.1349 10.4951 38.8985C10.7574 38.7158 10.9617 38.4593 11.0828 38.1604C11.1952 37.8521 11.2505 37.5252 11.2458 37.1964C11.2415 36.8189 11.1432 36.4487 10.9601 36.1204C10.777 35.792 10.5151 35.5161 10.1987 35.3185C9.07465 34.6238 7.86586 34.0819 6.60325 33.7067C5.86242 33.4406 5.12159 33.1393 4.38076 32.7929C3.66368 32.4612 2.99814 32.0248 2.40522 31.4974C1.80886 30.9682 1.32055 30.325 0.968015 29.6045C0.574573 28.7579 0.383352 27.8289 0.409925 26.8931C0.38912 25.9006 0.586538 24.9159 0.98777 24.0109C1.371 23.1645 1.94046 22.4189 2.65216 21.8318C3.42862 21.2048 4.31768 20.7376 5.26976 20.456C6.39101 20.1139 7.55635 19.9447 8.72695 19.9539C10.0607 19.9311 11.3909 20.1001 12.678 20.456C13.6313 20.736 14.5533 21.1163 15.429 21.5908L13.9473 25.6779C13.2744 25.3198 12.5741 25.0176 11.8532 24.7741C10.9467 24.4996 10.0035 24.3708 9.05785 24.3925C7.8396 24.3925 6.96378 24.5599 6.43039 24.8947C6.16833 25.0587 5.95501 25.292 5.81323 25.5697C5.67144 25.8474 5.6065 26.159 5.62535 26.4713C5.61261 26.8488 5.71621 27.221 5.92168 27.5358C6.14619 27.8491 6.42995 28.1137 6.75635 28.314C7.14766 28.5666 7.56297 28.7786 7.996 28.9467C8.46519 29.1375 8.98377 29.3283 9.55174 29.5291C10.7272 29.971 11.7512 30.4078 12.6237 30.8396C13.4229 31.2199 14.1567 31.7285 14.7968 32.346C15.3685 32.9103 15.8104 33.5961 16.0908 34.3544C16.3923 35.2645 16.5344 36.2213 16.5106 37.1813C16.5106 39.3303 15.7714 41.0041 14.293 42.2024C12.8147 43.4008 10.579 44 7.58608 44C6.67751 44.0067 5.76967 43.9462 4.86971 43.8192C4.14879 43.7134 3.43469 43.5642 2.73119 43.3723C2.1843 43.2198 1.64806 43.0303 1.12606 42.805C0.741197 42.636 0.365327 42.4466 0 42.2376L1.43721 38.1203C2.23544 38.5422 3.0746 38.8787 3.9412 39.1245C5.12889 39.4508 6.356 39.6046 7.58608 39.5814Z" fill="#0A2F73"/>
<path d="M18.8566 21.7012L23.7065 20.9029V26.0546H29.5788V30.1769H23.7065V36.3227C23.6627 37.1934 23.8485 38.0602 24.2449 38.8333C24.6037 39.4492 25.3281 39.7588 26.418 39.7622C26.9612 39.7605 27.5033 39.7101 28.0379 39.6116C28.5648 39.5146 29.0809 39.3649 29.5788 39.1647L30.2653 43.0209C29.6238 43.283 28.9633 43.4945 28.2898 43.6535C27.4339 43.8477 26.559 43.9421 25.6821 43.9347C24.5562 43.9718 23.434 43.7859 22.378 43.3874C21.5661 43.0731 20.8457 42.5549 20.2839 41.8811C19.743 41.1867 19.3692 40.3734 19.1924 39.5061C18.9759 38.4901 18.8715 37.4527 18.8813 36.4131L18.8566 21.7012Z" fill="#0A2F73"/>
<path d="M38.6959 25.6077C39.9149 25.5749 41.131 25.7445 42.2963 26.1098C43.1644 26.3816 43.9543 26.8641 44.5978 27.5157C45.1847 28.1535 45.6057 28.9302 45.8227 29.7752C46.0737 30.7399 46.195 31.7348 46.1832 32.7327V43.036C45.4868 43.1916 44.5139 43.3774 43.2742 43.5883C41.7816 43.8132 40.2738 43.9173 38.765 43.8996C37.7484 43.9109 36.7334 43.8116 35.7375 43.6034C34.9024 43.425 34.1091 43.084 33.4015 42.5991C32.7616 42.1482 32.2505 41.5332 31.9198 40.8166C31.5447 39.984 31.3591 39.0761 31.3765 38.1605C31.3471 37.2577 31.5551 36.3633 31.9791 35.5696C32.3647 34.8726 32.9167 34.2855 33.5842 33.8624C34.3017 33.4269 35.0865 33.1179 35.9055 32.9486C36.7972 32.7596 37.7059 32.6653 38.6169 32.6674C39.1794 32.6645 39.7416 32.693 40.301 32.7527C40.7046 32.7912 41.1044 32.8634 41.4962 32.9686V32.5017C41.5102 32.1324 41.4505 31.764 41.3206 31.4188C41.1907 31.0736 40.9934 30.7588 40.7406 30.4932C40.2467 29.9911 39.3676 29.73 38.1279 29.73C37.3016 29.7288 36.4762 29.7892 35.6585 29.9108C34.9474 30.0071 34.2476 30.1753 33.5694 30.4129L32.9471 26.4261C33.2286 26.3358 33.5842 26.2404 34.0089 26.1399C34.4337 26.0395 34.8979 25.9541 35.3967 25.8738C35.8956 25.7935 36.429 25.7332 36.9821 25.678C37.5353 25.6228 38.1279 25.6077 38.6959 25.6077ZM39.091 40.0986C39.5849 40.0986 40.0245 40.0986 40.464 40.0685C40.8145 40.0535 41.164 40.02 41.5111 39.9681V36.1922C41.3135 36.147 41.0172 36.1018 40.627 36.0566C39.8398 35.9566 39.0435 35.9566 38.2563 36.0566C37.8883 36.1018 37.5297 36.207 37.1945 36.3679C36.9031 36.5099 36.6542 36.7283 36.4734 37.0006C36.2895 37.3012 36.1983 37.651 36.2117 38.0048C36.18 38.3197 36.2353 38.6374 36.3714 38.9221C36.5075 39.2069 36.719 39.4474 36.9821 39.6166C37.6346 39.9517 38.3607 40.1107 39.091 40.0785V40.0986Z" fill="#0A2F73"/>
<path d="M49.5713 26.6521C50.6256 26.3606 51.6959 26.1326 52.7766 25.9692C54.1393 25.7537 55.5166 25.648 56.8956 25.6529C58.1355 25.6174 59.3711 25.8148 60.5405 26.2353C61.4352 26.5719 62.2284 27.1395 62.842 27.8822C63.4237 28.6173 63.8371 29.475 64.052 30.3928C64.3038 31.4598 64.4249 32.5543 64.4125 33.6515V43.5381H59.5428V34.2641C59.5428 32.6674 59.3354 31.5376 58.9205 30.8748C58.5057 30.212 57.7319 29.8773 56.5993 29.8706C56.2486 29.8706 55.8782 29.8706 55.488 29.9208C55.0979 29.971 54.7472 29.9911 54.441 30.0363V43.5381H49.5713V26.6521Z" fill="#0A2F73"/>
<path d="M82.943 42.9707C82.5084 43.1063 82.0046 43.2318 81.4614 43.3523C80.9181 43.4728 80.3007 43.5783 79.6784 43.6686C79.0562 43.759 78.424 43.8293 77.7819 43.8845C77.1399 43.9398 76.5225 43.9699 75.9348 43.9699C74.6318 43.9956 73.335 43.7813 72.1072 43.3372C71.0507 42.9506 70.0911 42.3317 69.297 41.5246C68.5232 40.7086 67.9319 39.7323 67.5634 38.6626C67.1433 37.452 66.9377 36.1753 66.956 34.8917C66.9407 33.5919 67.1172 32.2972 67.4795 31.0506C67.7893 29.9905 68.3011 29.0027 68.9858 28.1434C69.6328 27.35 70.4553 26.7237 71.3861 26.3157C72.4162 25.8777 73.5245 25.6623 74.6408 25.683C75.2508 25.6747 75.8595 25.7421 76.4534 25.8839C77.0084 26.023 77.5505 26.2112 78.0733 26.4462V18.543L82.943 17.7446V42.9707ZM71.9294 34.6457C71.8651 35.9548 72.2204 37.2499 72.9418 38.3362C73.2913 38.8027 73.7488 39.1743 74.2735 39.4178C74.7982 39.6613 75.374 39.7693 75.9496 39.7321C76.3842 39.7321 76.7892 39.7321 77.1596 39.6819C77.53 39.6317 77.8313 39.6116 78.0733 39.5664V30.5736C77.7035 30.3431 77.3001 30.1736 76.8781 30.0715C76.3952 29.9377 75.8969 29.8701 75.3965 29.8706C73.0818 29.874 71.9261 31.4657 71.9294 34.6457Z" fill="#0A2F73"/>
<path d="M92.6776 25.6076C93.895 25.5748 95.1095 25.7444 96.273 26.1098C97.143 26.3874 97.9331 26.8769 98.5745 27.5358C99.1612 28.1745 99.5836 28.9506 99.8043 29.7953C100.051 30.7608 100.171 31.7552 100.16 32.7527V43.0359C99.4619 43.1933 98.4922 43.3774 97.2509 43.5883C95.7584 43.8132 94.2506 43.9173 92.7418 43.8996C91.7267 43.9109 90.7134 43.8116 89.7192 43.6033C88.8825 43.425 88.0876 43.084 87.3782 42.5991C86.7383 42.1481 86.2272 41.5332 85.8965 40.8166C85.5215 39.9839 85.3358 39.0761 85.3532 38.1604C85.3183 37.2564 85.5194 36.359 85.936 35.5595C86.3272 34.8644 86.8843 34.2807 87.556 33.8624C88.2739 33.4277 89.0586 33.1188 89.8772 32.9485C90.7691 32.76 91.6777 32.6658 92.5887 32.6673C93.1512 32.6645 93.7134 32.693 94.2728 32.7527C94.6764 32.7907 95.0762 32.8629 95.468 32.9686V32.5016C95.4818 32.1328 95.4224 31.7649 95.2935 31.4198C95.1645 31.0748 94.9685 30.7597 94.7173 30.4932C94.2234 29.9911 93.3443 29.73 92.0997 29.73C91.2733 29.7284 90.4479 29.7888 89.6303 29.9107C88.9175 30.0065 88.216 30.1747 87.5362 30.4129L86.9139 26.4261C87.2004 26.3357 87.551 26.2403 87.9758 26.1399C88.4005 26.0395 88.8648 25.9541 89.3685 25.8738C89.8723 25.7934 90.3958 25.7332 90.9539 25.6779C91.512 25.6227 92.1096 25.6076 92.6776 25.6076ZM93.0677 40.0986C93.5616 40.0986 94.0061 40.0986 94.4407 40.0685C94.7912 40.0534 95.1407 40.0199 95.4878 39.968V36.1922C95.1955 36.1318 94.9005 36.0865 94.6037 36.0566C94.2463 36.0142 93.8869 35.9924 93.527 35.9913C93.0943 35.9904 92.662 36.0189 92.2331 36.0767C91.865 36.1219 91.5065 36.227 91.1712 36.388C90.8812 36.5301 90.6339 36.7485 90.4551 37.0206C90.2688 37.3203 90.1775 37.6708 90.1933 38.0249C90.1605 38.3394 90.2148 38.6569 90.3501 38.9417C90.4854 39.2265 90.6962 39.4672 90.9588 39.6366C91.6133 39.9641 92.3392 40.1162 93.0677 40.0785V40.0986Z" fill="#0A2F73"/>
<path d="M113.915 30.443C113.48 30.3325 112.966 30.212 112.379 30.0915C111.754 29.9674 111.119 29.9069 110.482 29.9108C110.115 29.9142 109.749 29.941 109.386 29.9911C109.06 30.0257 108.738 30.0879 108.423 30.1769V43.5381H103.553V26.9684C104.566 26.6265 105.596 26.3399 106.64 26.1098C107.945 25.8203 109.279 25.6805 110.615 25.693C110.877 25.693 111.188 25.693 111.559 25.7432C111.929 25.7935 112.305 25.8236 112.675 25.8738C113.045 25.924 113.416 25.9993 113.786 26.0746C114.111 26.1384 114.428 26.2343 114.734 26.3608L113.915 30.443Z" fill="#0A2F73"/>
<path d="M131.299 42.9707C130.865 43.1063 130.361 43.2318 129.818 43.3523C129.274 43.4728 128.657 43.5783 128.035 43.6686C127.412 43.759 126.78 43.8293 126.138 43.8845C125.496 43.9398 124.879 43.9699 124.291 43.9699C123 43.9914 121.715 43.7771 120.498 43.3372C119.442 42.957 118.484 42.3397 117.695 41.5313C116.905 40.7229 116.306 39.7441 115.94 38.6676C115.519 37.457 115.314 36.1803 115.332 34.8967C115.317 33.597 115.493 32.3022 115.856 31.0556C116.163 29.9947 116.675 29.0065 117.362 28.1484C118.009 27.3551 118.831 26.7287 119.762 26.3207C120.78 25.8882 121.874 25.6729 122.977 25.688C123.587 25.6797 124.196 25.7472 124.79 25.8889C125.353 26.0274 125.903 26.2156 126.435 26.4512V18.543L131.304 17.7446L131.299 42.9707ZM120.286 34.6457C120.214 35.952 120.561 37.2468 121.273 38.3362C121.623 38.8031 122.08 39.1748 122.605 39.4184C123.13 39.6619 123.706 39.7697 124.281 39.7321C124.716 39.7321 125.121 39.7321 125.491 39.6819C125.862 39.6317 126.163 39.6116 126.405 39.5664V30.5736C126.035 30.3431 125.632 30.1736 125.21 30.0715C124.727 29.9377 124.229 29.8701 123.728 29.8706C121.43 29.874 120.282 31.4657 120.286 34.6457Z" fill="#0A2F73"/>
<path d="M155.001 39.0843V43.5381H139.863V20.5062H144.965V39.0843H155.001Z" fill="#0A2F73"/>
<path d="M162.715 21.0033C162.735 21.4037 162.667 21.8035 162.517 22.1742C162.366 22.5448 162.137 22.8771 161.846 23.1473C161.28 23.6492 160.555 23.9257 159.804 23.9257C159.053 23.9257 158.328 23.6492 157.762 23.1473C157.471 22.8769 157.243 22.5444 157.093 22.1737C156.944 21.8031 156.877 21.4034 156.897 21.0033C156.877 20.6033 156.944 20.2036 157.093 19.8329C157.243 19.4623 157.471 19.1298 157.762 18.8593C158.326 18.3545 159.052 18.076 159.804 18.076C160.556 18.076 161.282 18.3545 161.846 18.8593C162.137 19.1295 162.366 19.4618 162.517 19.8325C162.667 20.2031 162.735 20.6029 162.715 21.0033ZM162.256 43.5381H157.386V26.0546H162.256V43.5381Z" fill="#0A2F73"/>
<path d="M172.776 17.7446C173.623 17.7376 174.469 17.832 175.295 18.0258C175.895 18.1639 176.485 18.3486 177.058 18.5781L176.11 22.5297C175.653 22.3298 175.176 22.1832 174.687 22.0929C174.219 21.9967 173.743 21.9462 173.265 21.9423C172.76 21.9296 172.257 22.0148 171.783 22.1933C171.416 22.3351 171.09 22.5681 170.835 22.8712C170.599 23.1756 170.43 23.5285 170.341 23.9055C170.239 24.3294 170.189 24.7646 170.193 25.201V26.0646H176.208V30.1769H170.193V43.5381H165.323V25.1056C165.323 22.8427 165.949 21.0468 167.2 19.7179C168.451 18.389 170.31 17.7312 172.776 17.7446Z" fill="#0A2F73"/>
<path d="M177.201 34.9269C177.173 33.5357 177.413 32.1524 177.907 30.8548C178.331 29.7677 178.966 28.7788 179.774 27.9475C180.522 27.1837 181.417 26.5839 182.402 26.1851C183.37 25.8008 184.4 25.6049 185.439 25.6077C187.879 25.6077 189.808 26.3676 191.227 27.8873C192.647 29.407 193.354 31.6381 193.351 34.5804C193.351 34.8716 193.351 35.188 193.317 35.5294C193.282 35.8708 193.277 36.1771 193.252 36.4433H182.204C182.247 36.9283 182.396 37.3976 182.639 37.817C182.883 38.2365 183.215 38.5956 183.612 38.8685C184.603 39.5146 185.769 39.8289 186.945 39.7672C187.829 39.7673 188.71 39.6832 189.578 39.5162C190.301 39.3922 191.008 39.1867 191.687 38.9036L192.339 42.9205C192.001 43.0816 191.651 43.2142 191.292 43.3172C190.815 43.4622 190.33 43.5796 189.84 43.6686C189.301 43.7691 188.733 43.8494 188.121 43.9147C187.512 43.9832 186.901 44.0167 186.289 44.0151C184.908 44.0425 183.535 43.8005 182.244 43.3021C181.169 42.8871 180.197 42.2355 179.399 41.3941C178.64 40.5725 178.07 39.5898 177.73 38.517C177.368 37.3562 177.19 36.1445 177.201 34.9269ZM188.664 33.0339C188.644 32.6165 188.572 32.2033 188.452 31.8037C188.337 31.4148 188.147 31.053 187.894 30.7393C187.634 30.4195 187.311 30.1593 186.945 29.9761C186.502 29.7611 186.014 29.6577 185.523 29.6748C185.04 29.6619 184.561 29.7597 184.12 29.961C183.742 30.1353 183.405 30.3905 183.133 30.7091C182.865 31.0258 182.66 31.3924 182.53 31.7887C182.388 32.1928 182.284 32.6097 182.219 33.0339H188.664Z" fill="#0A2F73"/>
</g>
<defs>
<clipPath id="clip0_8520_18419">
<rect width="210" height="44" fill="white"/>
</clipPath>
</defs>
</svg>
