<?xml version="1.0" encoding="UTF-8"?>
<svg id="Original" xmlns="http://www.w3.org/2000/svg" viewBox="0 0 1000 215.15"  width="140" height="37">
  <defs>
    <style>
      .cls-1 {
        fill: #0024ff;
      }
    </style>
  </defs>
  <path class="cls-1" d="m676.78,0h-15.5c-.56,0-1.01.45-1.01,1.01v32.58c-6.62-6.62-15.03-9.93-23.86-9.93-19.03,0-34.48,15.72-34.48,38.62s16.27,38.48,34.89,38.48c9.24,0,16.96-3.31,23.45-9.65v6.71c0,.56.45,1.01,1.01,1.01h15.5c.56,0,1.01-.45,1.01-1.01V1.01c0-.56-.45-1.01-1.01-1.01h0Zm-37.18,83.93c-11.75,0-20.24-9.24-20.24-21.79s7.79-21.65,20.24-21.65,20.67,8.69,20.67,21.51-9.06,21.93-20.67,21.93h0Zm-45.12-21.79c0,21.24-16.41,38.62-38.75,38.62s-38.07-16.96-38.07-38.48,17.93-38.62,37.93-38.62c21.38,0,38.89,16.82,38.89,38.48Zm-59.39,0c0,12.73,8.28,21.78,20.77,21.78s21.2-8.49,21.2-21.64-8.57-21.78-21.2-21.78-20.77,9.19-20.77,21.64h0Zm-23.34,77.85h-15.5c-.56,0-1.01.45-1.01,1.01v6.99c-6.62-6.62-15.03-9.93-23.86-9.93-19.03,0-34.48,15.72-34.48,38.62s16.27,38.48,34.89,38.48c9.24,0,16.96-3.31,23.45-9.65v6.71c0,.56.45,1.01,1.01,1.01h15.5c.56,0,1.01-.45,1.01-1.01v-71.21c0-.56-.45-1.01-1.01-1.01h0Zm-37.18,58.34c-11.75,0-20.24-9.24-20.24-21.79s7.79-21.65,20.24-21.65,20.67,8.69,20.67,21.51-9.06,21.93-20.67,21.93h0Zm-139.85-84.13h16.9c.43,0,.82.28.96.69l22.67,68.4,22.94-68.41c.14-.41.52-.69.96-.69h16.62c.49,0,.91.36,1,.84l16.35,97c.1.62-.37,1.18-1,1.18h-16.16c-.49,0-.91-.36-.99-.84l-10.48-61.77-20.87,61.92c-.14.41-.52.69-.96.69h-15.1c-.43,0-.82-.28-.96-.69l-20.6-61.92-10.75,61.78c-.08.48-.5.84-.99.84h-16.29c-.63,0-1.1-.56-.99-1.18l16.75-97c.08-.48.5-.84.99-.84h0Zm266.34,0h15.47c.74,0,1.35.6,1.35,1.35v54.64l26.58-29.55c.38-.42.91-.66,1.47-.66h19.79c.86,0,1.31,1.01.74,1.65l-29.15,32.6c-.46.52-.46,1.31.02,1.82l32.93,35.5c.59.63.14,1.67-.73,1.67h-19.62c-.55,0-1.08-.23-1.46-.64l-30.58-33.15v32.44c0,.74-.6,1.35-1.35,1.35h-15.47c-.74,0-1.35-.6-1.35-1.35v-96.32c0-.74.6-1.35,1.35-1.35h0Zm216.51,48.96v49.05c0,.56-.45,1.01-1.01,1.01h-15.4c-.56,0-1.01-.45-1.01-1.01v-33.61c0-14.48-1.32-23.72-13.18-23.72-5.42,0-10.11,2.48-13.18,7.03-3.96,5.93-3.81,12.55-3.81,20.14v30.16c0,.56-.45,1.01-1.01,1.01h-15.48c-.56,0-1.01-.45-1.01-1.01v-71.21c0-.56.45-1.01,1.01-1.01h14.26c.56,0,1.01.45,1.01,1.01v6.99c2.01-2.01,4.21-3.68,6.52-5.08,3.96-2.24,8.16-3.77,12.36-4.45.25-.04.5-.08.75-.11.43-.06.87-.11,1.3-.15.95-.08,1.91-.13,2.87-.13.02,0,.04,0,.07,0,13.59.07,24.96,9.43,24.96,25.09h0Zm79.72-23.17h14.86c.74,0,1.35.6,1.35,1.35v70.54c0,.74-.6,1.35-1.35,1.35h-14.86c-.74,0-1.35-.6-1.35-1.35v-70.54c0-.74.6-1.35,1.35-1.35h0Zm15.42-10.6h-15.97c-.37,0-.67-.3-.67-.67v-13.86c0-.37.3-.67.67-.67h15.97c.37,0,.67.3.67.67v13.86c0,.37-.3.67-.67.67Zm-168.06,45.68c-1.3-20.5-18.15-36.97-38.68-37.02-23.65-.06-38.18,18.45-38.18,38.48l.23.07h-.23c.03,21.46,15.04,38.51,38.3,38.51,14.81,0,24.92-4.57,32.66-14.8.51-.67.25-1.65-.51-2.01l-13.14-6.22c-.5-.24-1.09-.13-1.49.24-4.89,4.52-10.01,6.53-17.52,6.53,0,0-17.62.97-20.53-16.95h.03s57.71,0,57.71,0c.72,0,1.31-.56,1.34-1.28.07-1.49.2-2.54.01-5.56h0Zm-57.56-7.64c3.47-9.24,10.26-13.79,19.05-13.79,9.46,0,17.05,5.24,19.45,13.79h-38.5Zm312.81,7.64c-1.3-20.5-18.15-36.97-38.68-37.02-23.65-.06-38.18,18.45-38.18,38.48l.23.07h-.23c.03,21.46,15.04,38.51,38.3,38.51,14.81,0,24.93-4.57,32.66-14.8.51-.67.25-1.65-.51-2.01l-13.14-6.22c-.5-.24-1.09-.13-1.49.24-4.89,4.52-10.01,6.53-17.52,6.53,0,0-17.62.97-20.54-16.95h.03s57.71,0,57.71,0c.72,0,1.31-.56,1.34-1.28.06-1.49.2-2.54.01-5.56h0Zm-57.56-7.64c3.46-9.24,10.26-13.79,19.05-13.79,9.46,0,17.05,5.24,19.45,13.79h-38.5ZM510.21,62.14c0,21.24-16.41,38.62-38.75,38.62s-38.07-16.96-38.07-38.48,17.93-38.62,37.93-38.62c21.38,0,38.89,16.82,38.89,38.48Zm-59.39,0c0,12.73,8.28,21.78,20.77,21.78s21.2-8.49,21.2-21.64-8.57-21.78-21.2-21.78-20.77,9.19-20.77,21.64h0Zm-35.26,36.89h-16.38c-.58,0-1.09-.37-1.28-.92l-22.59-68.17-22.86,68.18c-.18.55-.7.92-1.28.92h-16.1c-.66,0-1.22-.47-1.33-1.12L317.52,1.57c-.14-.82.49-1.57,1.33-1.57h15.48c.66,0,1.22.47,1.33,1.12l10.43,61.49L366.87.92c.18-.55.7-.92,1.28-.92h14.61c.58,0,1.09.37,1.28.92l20.52,61.69,10.7-61.5c.11-.64.67-1.11,1.33-1.11h15.61c.84,0,1.47.75,1.33,1.57l-16.64,96.33c-.11.65-.67,1.12-1.33,1.12h0Zm176.41,101.28c-7.73,10.24-17.85,14.8-32.66,14.8-23.26,0-38.27-17.05-38.3-38.51.03-21.46,15.04-38.51,38.3-38.51,14.81,0,24.92,4.57,32.66,14.8.51.67.25,1.65-.51,2.01l-13.14,6.22c-.5.24-1.09.13-1.49-.24-4.89-4.52-10.01-6.53-17.52-6.53,0,0-20.95-1.18-20.95,22.25s20.95,22.25,20.95,22.25c7.51,0,12.63-2.02,17.52-6.53.41-.37.99-.48,1.49-.24l13.14,6.22c.76.36,1.02,1.34.51,2.01h0Zm293.7-1.66v13.56c0,.56-.44,1.01-1,1.01h-56.87c-.78,0-1.26-.84-.88-1.51l32.17-56.13h-26.92c-.56,0-1.01-.45-1.01-1.01v-13.56c0-.56.45-1.01,1.01-1.01h53.38c.78,0,1.26.84.88,1.51l-32.17,56.14h30.4c.56,0,1.02.45,1.02,1.01h0ZM170.54,39.93c1.89,1.89,2.95,4.45,2.95,7.12s-1.06,5.23-2.95,7.12L11.51,213.18c-1.93,1.93-4.83,2.51-7.35,1.46s-4.16-3.5-4.16-6.23V7.73C0,4.61,1.88,1.79,4.76.6S10.97.06,13.18,2.27l47.59,47.57c3.22,3.22,8.44,3.22,11.65,0L119.33,2.95c3.93-3.93,10.3-3.93,14.23,0l36.98,36.98h0Zm-87.83,135.29c-1.89-1.89-2.95-4.45-2.95-7.12s1.06-5.23,2.95-7.12L241.74,1.97c1.93-1.93,4.83-2.5,7.35-1.46s4.16,3.5,4.16,6.23v200.68c0,3.12-1.88,5.94-4.76,7.13s-6.2.54-8.41-1.67l-47.59-47.57c-3.22-3.22-8.44-3.22-11.65,0l-46.9,46.89c-3.93,3.93-10.3,3.93-14.23,0l-36.98-36.98h0Z"/>
</svg>